# xmcd
#
# Track frame offsets:
#	150
#	6832
#	13502
#	20522
#	27665
#	33632
#	43797
#	52285
#	58875
#	67640
#	74042
#	94835
#	116175
#	122817
#	128407
#	135717
#	143147
#	152722
#	158692
#	166897
#	173500
#	191817
#
# Disc length: 2784 seconds
#
# Revision: 1
# Processed by: cddbd v1.5.1PL0 Copyright (c) Steve Scherf et al.
# Submitted via: CDex 1.50Beta5
#
DISCID=3a0ade16
DTITLE=早坂好恵 - ひみつの花園
DYEAR=1991
DGENRE=Soundtrack
TTITLE0=早坂好恵/逆転タイフーン
TTITLE1=TVサントラ/やすらぎ
TTITLE2=TVサントラ/メアリーの想い出
TTITLE3=TVサントラ/パティとメアリー
TTITLE4=TVサントラ/カミーラの秘密
TTITLE5=TVサントラ/シークレットガーデン
TTITLE6=TVサントラ/愛の花園
TTITLE7=TVサントラ/走れメアリー
TTITLE8=TVサントラ/クレイブンさんの家
TTITLE9=TVサントラ/春の予感
TTITLE10=マサハル/君に逢いたかった
TTITLE11=加藤いづみ/想い出がいっぱい
TTITLE12=TVサントラ/花園への鍵
TTITLE13=TVサントラ/友情
TTITLE14=TVサントラ/おばけやしき
TTITLE15=TVサントラ/月の光
TTITLE16=TVサントラ/夜明けのムア
TTITLE17=TVサントラ/いたずらパティ
TTITLE18=TVサントラ/テーマ・バリエーション1
TTITLE19=TVサントラ/テーマ・バリエーション2
TTITLE20=早坂好恵/逆転タイフーン
TTITLE21=早坂好恵/はらほろひれはれ
EXTD=
EXTT0=
EXTT1=
EXTT2=
EXTT3=
EXTT4=
EXTT5=
EXTT6=
EXTT7=
EXTT8=
EXTT9=
EXTT10=
EXTT11=
EXTT12=
EXTT13=
EXTT14=
EXTT15=
EXTT16=
EXTT17=
EXTT18=
EXTT19=
EXTT20=
EXTT21=
PLAYORDER=
